<mxfile host="65bd71144e">
    <diagram id="0321H9xaBzqn8isrsgne" name="SkinNaturals">
        <mxGraphModel dx="2114" dy="445" grid="1" gridSize="10" guides="1" tooltips="1" connect="1" arrows="1" fold="1" page="1" pageScale="1" pageWidth="1169" pageHeight="827" background="none" math="0" shadow="0">
            <root>
                <mxCell id="0"/>
                <mxCell id="1" parent="0"/>
                <mxCell id="2" value="&lt;font style=&quot;font-size: 16px;&quot;&gt;Home&lt;/font&gt;" style="rounded=0;whiteSpace=wrap;html=1;strokeWidth=0.5;fillColor=#fbe4cb;strokeColor=#d79b00;fillStyle=auto;" parent="1" vertex="1">
                    <mxGeometry x="300" y="60" width="120" height="40" as="geometry"/>
                </mxCell>
                <mxCell id="15" value="" style="endArrow=none;html=1;strokeWidth=0.5;" parent="1" edge="1">
                    <mxGeometry width="50" height="50" relative="1" as="geometry">
                        <mxPoint x="359" y="100" as="sourcePoint"/>
                        <mxPoint x="359" y="140" as="targetPoint"/>
                    </mxGeometry>
                </mxCell>
                <mxCell id="16" value="" style="endArrow=none;html=1;strokeWidth=0.5;" parent="1" edge="1">
                    <mxGeometry width="50" height="50" relative="1" as="geometry">
                        <mxPoint x="28" y="140" as="sourcePoint"/>
                        <mxPoint x="609.3" y="140" as="targetPoint"/>
                    </mxGeometry>
                </mxCell>
                <mxCell id="92" value="" style="endArrow=none;html=1;fontSize=16;strokeWidth=0.5;exitX=0.5;exitY=-0.005;exitDx=0;exitDy=0;exitPerimeter=0;" parent="1" edge="1">
                    <mxGeometry width="50" height="50" relative="1" as="geometry">
                        <mxPoint x="450" y="160" as="sourcePoint"/>
                        <mxPoint x="450" y="140.17000000000007" as="targetPoint"/>
                    </mxGeometry>
                </mxCell>
                <mxCell id="95" value="" style="group;rotation=90;" parent="1" vertex="1" connectable="0">
                    <mxGeometry x="560" y="140.00000000000003" width="160" height="188.82999999999998" as="geometry"/>
                </mxCell>
                <mxCell id="130" value="" style="group" vertex="1" connectable="0" parent="95">
                    <mxGeometry x="49" y="52.99999999999996" width="110" height="96" as="geometry"/>
                </mxCell>
                <mxCell id="131" value="" style="endArrow=none;html=1;strokeWidth=0.5;fontSize=10;" edge="1" parent="130">
                    <mxGeometry width="50" height="50" relative="1" as="geometry">
                        <mxPoint y="40.73999999999998" as="sourcePoint"/>
                        <mxPoint x="55" y="40.73999999999998" as="targetPoint"/>
                    </mxGeometry>
                </mxCell>
                <mxCell id="132" value="" style="endArrow=none;html=1;strokeWidth=0.5;fontSize=10;" edge="1" parent="130">
                    <mxGeometry width="50" height="50" relative="1" as="geometry">
                        <mxPoint y="80.74000000000001" as="sourcePoint"/>
                        <mxPoint x="55" y="80.74000000000001" as="targetPoint"/>
                    </mxGeometry>
                </mxCell>
                <mxCell id="133" value="&lt;font style=&quot;font-size: 10px;&quot;&gt;Introduction&lt;/font&gt;" style="rounded=0;whiteSpace=wrap;html=1;strokeWidth=0.5;fillColor=#EDFDEC;strokeColor=#82b366;" vertex="1" parent="130">
                    <mxGeometry x="20" y="26" width="90" height="30" as="geometry"/>
                </mxCell>
                <mxCell id="134" value="&lt;font style=&quot;font-size: 10px;&quot;&gt;Enroll form&lt;/font&gt;" style="rounded=0;whiteSpace=wrap;html=1;strokeWidth=0.5;fillColor=#EDFDEC;strokeColor=#82b366;" vertex="1" parent="130">
                    <mxGeometry x="20" y="66" width="90" height="30" as="geometry"/>
                </mxCell>
                <mxCell id="135" value="" style="endArrow=none;html=1;strokeWidth=0.5;fontSize=10;" edge="1" parent="130">
                    <mxGeometry width="50" height="50" relative="1" as="geometry">
                        <mxPoint y="81" as="sourcePoint"/>
                        <mxPoint as="targetPoint"/>
                    </mxGeometry>
                </mxCell>
                <mxCell id="96" value="&lt;font style=&quot;&quot;&gt;Enroll Now&lt;br&gt;&lt;/font&gt;&lt;font style=&quot;font-size: 8px;&quot;&gt;Landing page &amp;amp; form&lt;/font&gt;" style="rounded=0;whiteSpace=wrap;html=1;strokeWidth=0.5;fillColor=#fff2cc;strokeColor=#d6b656;" parent="95" vertex="1">
                    <mxGeometry y="19.829999999999984" width="100" height="34" as="geometry"/>
                </mxCell>
                <mxCell id="105" value="" style="endArrow=none;html=1;fontSize=16;strokeWidth=0.5;exitX=0.5;exitY=-0.005;exitDx=0;exitDy=0;exitPerimeter=0;" parent="95" edge="1">
                    <mxGeometry width="50" height="50" relative="1" as="geometry">
                        <mxPoint x="49" y="19.829999999999984" as="sourcePoint"/>
                        <mxPoint x="49" as="targetPoint"/>
                    </mxGeometry>
                </mxCell>
                <mxCell id="121" value="" style="group;" parent="1" vertex="1" connectable="0">
                    <mxGeometry y="400" width="110" height="60" as="geometry"/>
                </mxCell>
                <mxCell id="117" value="" style="rounded=0;whiteSpace=wrap;html=1;fillStyle=auto;strokeWidth=0.5;fontSize=8;fillColor=#fff2cc;strokeColor=#d6b656;" parent="121" vertex="1">
                    <mxGeometry y="5" width="30" height="10" as="geometry"/>
                </mxCell>
                <mxCell id="118" value="Main Page" style="text;html=1;align=left;verticalAlign=middle;resizable=0;points=[];autosize=1;strokeColor=none;fillColor=none;fontSize=8;" parent="121" vertex="1">
                    <mxGeometry x="40" width="60" height="20" as="geometry"/>
                </mxCell>
                <mxCell id="113" value="" style="rounded=0;whiteSpace=wrap;html=1;fillStyle=auto;strokeWidth=0.5;fontSize=8;fillColor=#E5F0FF;strokeColor=#6c8ebf;" parent="121" vertex="1">
                    <mxGeometry y="45" width="30" height="10" as="geometry"/>
                </mxCell>
                <mxCell id="114" value="Link" style="text;html=1;align=left;verticalAlign=middle;resizable=0;points=[];autosize=1;strokeColor=none;fillColor=none;fontSize=8;" parent="121" vertex="1">
                    <mxGeometry x="40" y="40" width="40" height="20" as="geometry"/>
                </mxCell>
                <mxCell id="119" value="" style="rounded=0;whiteSpace=wrap;html=1;fillStyle=auto;strokeWidth=0.5;fontSize=8;fillColor=#EDFDEC;strokeColor=#82b366;" parent="121" vertex="1">
                    <mxGeometry y="25" width="30" height="10" as="geometry"/>
                </mxCell>
                <mxCell id="120" value="Page content" style="text;html=1;align=left;verticalAlign=middle;resizable=0;points=[];autosize=1;strokeColor=none;fillColor=none;fontSize=8;" parent="121" vertex="1">
                    <mxGeometry x="40" y="20" width="70" height="20" as="geometry"/>
                </mxCell>
                <mxCell id="17" value="About Us&lt;br&gt;&lt;font style=&quot;font-size: 8px;&quot;&gt;Landing Page&lt;/font&gt;" style="rounded=0;whiteSpace=wrap;html=1;strokeWidth=0.5;fillColor=#fff2cc;strokeColor=#d6b656;" parent="1" vertex="1">
                    <mxGeometry x="-20" y="160" width="100" height="34" as="geometry"/>
                </mxCell>
                <mxCell id="79" value="" style="endArrow=none;html=1;fontSize=16;strokeWidth=0.5;exitX=0.5;exitY=-0.005;exitDx=0;exitDy=0;exitPerimeter=0;" parent="1" edge="1">
                    <mxGeometry width="50" height="50" relative="1" as="geometry">
                        <mxPoint x="29" y="160" as="sourcePoint"/>
                        <mxPoint x="29" y="140.17000000000002" as="targetPoint"/>
                    </mxGeometry>
                </mxCell>
                <mxCell id="51" value="" style="endArrow=none;html=1;strokeWidth=0.5;fontSize=10;" parent="1" edge="1">
                    <mxGeometry width="50" height="50" relative="1" as="geometry">
                        <mxPoint x="30" y="274" as="sourcePoint"/>
                        <mxPoint x="30" y="193.99999999999994" as="targetPoint"/>
                    </mxGeometry>
                </mxCell>
                <mxCell id="53" value="" style="endArrow=none;html=1;strokeWidth=0.5;fontSize=10;" parent="1" edge="1">
                    <mxGeometry width="50" height="50" relative="1" as="geometry">
                        <mxPoint x="30" y="233.73999999999998" as="sourcePoint"/>
                        <mxPoint x="85" y="233.73999999999998" as="targetPoint"/>
                    </mxGeometry>
                </mxCell>
                <mxCell id="54" value="" style="endArrow=none;html=1;strokeWidth=0.5;fontSize=10;" parent="1" edge="1">
                    <mxGeometry width="50" height="50" relative="1" as="geometry">
                        <mxPoint x="30" y="273.74" as="sourcePoint"/>
                        <mxPoint x="85" y="273.74" as="targetPoint"/>
                    </mxGeometry>
                </mxCell>
                <mxCell id="25" value="&lt;font style=&quot;font-size: 10px;&quot;&gt;Company Info&lt;/font&gt;" style="rounded=0;whiteSpace=wrap;html=1;strokeWidth=0.5;fillColor=#EDFDEC;strokeColor=#82b366;" parent="1" vertex="1">
                    <mxGeometry x="50" y="219" width="90" height="30" as="geometry"/>
                </mxCell>
                <mxCell id="29" value="&lt;font style=&quot;font-size: 10px;&quot;&gt;Chef presentation&lt;/font&gt;" style="rounded=0;whiteSpace=wrap;html=1;strokeWidth=0.5;fillColor=#EDFDEC;strokeColor=#82b366;" parent="1" vertex="1">
                    <mxGeometry x="50" y="259" width="90" height="30" as="geometry"/>
                </mxCell>
                <mxCell id="80" value="" style="endArrow=none;html=1;fontSize=16;strokeWidth=0.5;exitX=0.5;exitY=-0.005;exitDx=0;exitDy=0;exitPerimeter=0;" parent="1" edge="1">
                    <mxGeometry width="50" height="50" relative="1" as="geometry">
                        <mxPoint x="209.79" y="160" as="sourcePoint"/>
                        <mxPoint x="209.79" y="140.17000000000002" as="targetPoint"/>
                    </mxGeometry>
                </mxCell>
                <mxCell id="72" value="" style="endArrow=none;html=1;strokeWidth=0.5;fontSize=10;" parent="1" edge="1">
                    <mxGeometry width="50" height="50" relative="1" as="geometry">
                        <mxPoint x="210" y="270" as="sourcePoint"/>
                        <mxPoint x="210" y="193.99999999999994" as="targetPoint"/>
                    </mxGeometry>
                </mxCell>
                <mxCell id="123" value="" style="group" vertex="1" connectable="0" parent="1">
                    <mxGeometry x="210" y="193" width="110" height="96" as="geometry"/>
                </mxCell>
                <mxCell id="73" value="" style="endArrow=none;html=1;strokeWidth=0.5;fontSize=10;" parent="123" edge="1">
                    <mxGeometry width="50" height="50" relative="1" as="geometry">
                        <mxPoint y="40.73999999999998" as="sourcePoint"/>
                        <mxPoint x="55" y="40.73999999999998" as="targetPoint"/>
                    </mxGeometry>
                </mxCell>
                <mxCell id="74" value="" style="endArrow=none;html=1;strokeWidth=0.5;fontSize=10;" parent="123" edge="1">
                    <mxGeometry width="50" height="50" relative="1" as="geometry">
                        <mxPoint y="80.74000000000001" as="sourcePoint"/>
                        <mxPoint x="55" y="80.74000000000001" as="targetPoint"/>
                    </mxGeometry>
                </mxCell>
                <mxCell id="76" value="&lt;font style=&quot;font-size: 10px;&quot;&gt;Introduction&lt;/font&gt;" style="rounded=0;whiteSpace=wrap;html=1;strokeWidth=0.5;fillColor=#EDFDEC;strokeColor=#82b366;" parent="123" vertex="1">
                    <mxGeometry x="20" y="26" width="90" height="30" as="geometry"/>
                </mxCell>
                <mxCell id="77" value="&lt;font style=&quot;font-size: 10px;&quot;&gt;Program&lt;/font&gt;" style="rounded=0;whiteSpace=wrap;html=1;strokeWidth=0.5;fillColor=#EDFDEC;strokeColor=#82b366;" parent="123" vertex="1">
                    <mxGeometry x="20" y="66" width="90" height="30" as="geometry"/>
                </mxCell>
                <mxCell id="122" value="" style="endArrow=none;html=1;strokeWidth=0.5;fontSize=10;" edge="1" parent="123">
                    <mxGeometry width="50" height="50" relative="1" as="geometry">
                        <mxPoint y="81" as="sourcePoint"/>
                        <mxPoint as="targetPoint"/>
                    </mxGeometry>
                </mxCell>
                <mxCell id="62" value="Our Class&lt;br&gt;&lt;font style=&quot;font-size: 8px;&quot;&gt;Landing page&lt;/font&gt;" style="rounded=0;whiteSpace=wrap;html=1;strokeWidth=0.5;fillColor=#fff2cc;strokeColor=#d6b656;" parent="1" vertex="1">
                    <mxGeometry x="160" y="160" width="100" height="34" as="geometry"/>
                </mxCell>
                <mxCell id="82" value="" style="group;" parent="1" vertex="1" connectable="0">
                    <mxGeometry x="400" y="160" width="160" height="169" as="geometry"/>
                </mxCell>
                <mxCell id="124" value="" style="group" vertex="1" connectable="0" parent="82">
                    <mxGeometry x="50" y="33" width="110" height="96" as="geometry"/>
                </mxCell>
                <mxCell id="125" value="" style="endArrow=none;html=1;strokeWidth=0.5;fontSize=10;" edge="1" parent="124">
                    <mxGeometry width="50" height="50" relative="1" as="geometry">
                        <mxPoint y="40.73999999999998" as="sourcePoint"/>
                        <mxPoint x="55" y="40.73999999999998" as="targetPoint"/>
                    </mxGeometry>
                </mxCell>
                <mxCell id="126" value="" style="endArrow=none;html=1;strokeWidth=0.5;fontSize=10;" edge="1" parent="124">
                    <mxGeometry width="50" height="50" relative="1" as="geometry">
                        <mxPoint y="80.74000000000001" as="sourcePoint"/>
                        <mxPoint x="55" y="80.74000000000001" as="targetPoint"/>
                    </mxGeometry>
                </mxCell>
                <mxCell id="127" value="&lt;font style=&quot;font-size: 10px;&quot;&gt;Contact info&lt;/font&gt;" style="rounded=0;whiteSpace=wrap;html=1;strokeWidth=0.5;fillColor=#EDFDEC;strokeColor=#82b366;" vertex="1" parent="124">
                    <mxGeometry x="20" y="26" width="90" height="30" as="geometry"/>
                </mxCell>
                <mxCell id="128" value="&lt;font style=&quot;font-size: 10px;&quot;&gt;Contact form&lt;/font&gt;" style="rounded=0;whiteSpace=wrap;html=1;strokeWidth=0.5;fillColor=#EDFDEC;strokeColor=#82b366;" vertex="1" parent="124">
                    <mxGeometry x="20" y="66" width="90" height="30" as="geometry"/>
                </mxCell>
                <mxCell id="129" value="" style="endArrow=none;html=1;strokeWidth=0.5;fontSize=10;" edge="1" parent="124">
                    <mxGeometry width="50" height="50" relative="1" as="geometry">
                        <mxPoint y="81" as="sourcePoint"/>
                        <mxPoint as="targetPoint"/>
                    </mxGeometry>
                </mxCell>
                <mxCell id="83" value="&lt;font style=&quot;&quot;&gt;Contact&lt;br&gt;&lt;/font&gt;&lt;font style=&quot;font-size: 8px;&quot;&gt;Landing page &amp;amp; form&lt;/font&gt;" style="rounded=0;whiteSpace=wrap;html=1;strokeWidth=0.5;fillColor=#fff2cc;strokeColor=#d6b656;" parent="82" vertex="1">
                    <mxGeometry width="100" height="34" as="geometry"/>
                </mxCell>
            </root>
        </mxGraphModel>
    </diagram>
</mxfile>